# xmcd CD database file
#
# Track frame offsets:
#	151
#	19707
#	28084
#	45814
#	55557
#	68519
#	78316
#	94430
#	101361
#	113355
#	121862
#	136000
#	143709
#	155637
#
# Disc length: 2419 seconds
#
# Revision: 0
# Processed by: cddbd v1.5.2PL0 Copyright (c) Steve Scherf et al.
# Submitted via: CDex 1.51
#
DISCID=9e09710e
DTITLE=Wolfgang Schuster - Acoustic Blues
DYEAR=1900
DGENRE=Blues
TTITLE0=Sincerely Blue
TTITLE1=Perpetual Blues Machine
TTITLE2=Walkin Blues
TTITLE3=Blue Snow
TTITLE4=How You Want It Done
TTITLE5=Blue Chicken
TTITLE6=Bound To The Blues
TTITLE7=Saturday Night Rub
TTITLE8=You Gotta Move
TTITLE9=Eastern Blue
TTITLE10=Hommage a Lonnie Johnson
TTITLE11=Old Country Rock
TTITLE12=Recovery
TTITLE13=Anselm at the beach
EXTD=
EXTT0=
EXTT1=
EXTT2=
EXTT3=
EXTT4=
EXTT5=
EXTT6=
EXTT7=
EXTT8=
EXTT9=
EXTT10=
EXTT11=
EXTT12=
EXTT13=
PLAYORDER=
